<?xml version="1.0" standalone="no"?><!DOCTYPE svg PUBLIC "-//W3C//DTD SVG 1.1//EN" "http://www.w3.org/Graphics/SVG/1.1/DTD/svg11.dtd"><svg t="1779514164841" class="icon" viewBox="0 0 1024 1024" version="1.1" xmlns="http://www.w3.org/2000/svg" p-id="1225" xmlns:xlink="http://www.w3.org/1999/xlink" width="200" height="200"><path d="M178.285714 443.099429V709.485714C178.285714 883.2 327.643429 1024 512 1024c184.32 0 333.714286-140.8 333.714286-314.404571v-266.496c-95.451429 60.672-210.176 96.109714-333.714286 96.109714S273.700571 503.771429 178.285714 443.099429z" fill="#6A8091" p-id="1226"></path><path d="M539.757714 0v135.204571c32.365714 10.861714 55.661714 39.643429 55.661715 73.837715V313.782857c0 34.194286-23.296 62.976-55.661715 73.837714v94.646858c116.48-6.070857 222.646857-48.274286 305.956572-115.456V313.124571C845.714286 148.333714 711.094857 13.421714 539.757714 0z" fill="#BDE1FF" p-id="1227"></path><path d="M484.242286 387.547429C451.84 376.685714 428.580571 347.867429 428.580571 313.709714V208.932571c0-34.194286 23.296-62.976 55.661715-73.874285V0C312.868571 13.385143 178.285714 148.333714 178.285714 313.161143v53.686857c83.309714 67.108571 189.476571 109.348571 305.956572 115.309714v-94.610285z" fill="#6A8091" p-id="1228"></path><path d="M475.428571 182.857143m36.571429 0l0 0q36.571429 0 36.571429 36.571428l0 73.142858q0 36.571429-36.571429 36.571428l0 0q-36.571429 0-36.571429-36.571428l0-73.142858q0-36.571429 36.571429-36.571428Z" fill="#BDE1FF" p-id="1229"></path></svg>